<svg width="265" height="64" viewBox="0 0 265 64" fill="none" xmlns="http://www.w3.org/2000/svg">
<path d="M2 42.0586C12.953 40.8416 23.0373 3.43748 18.9444 13.6697C16.9054 18.7674 14.3816 24.7384 14.0556 30.2808C13.6961 36.3907 12.7678 42.8445 13.2222 48.9474C13.2397 49.182 14.7667 58.0002 13.2222 57.6141C9.29638 56.6327 21.4232 26.4347 24.5556 22.7252C25.1481 22.0236 30.7669 17.9816 30.9444 18.7808C31.7939 22.6032 30.9681 26.6055 28.4444 29.503C25.2501 33.1705 16.5529 37.6897 26 34.003C29.4692 32.6492 40.3957 28.9456 43 33.503C45.5958 38.0456 41.9868 43.2965 37.8889 45.2808C31.3409 48.4514 24.5397 49.0586 17.3889 49.0586C16.302 49.0586 13.4098 49.0029 14.2222 48.2808C15.8202 46.8604 22.5193 48.4151 24.1111 48.6141C31.453 49.5319 40.4521 51.8993 47.4444 48.503C54.6378 45.0091 58.1955 38.5761 61.4444 31.6141C62.2569 29.8731 63 23.4428 63 29.2808C63 30.661 62.7013 32.6052 64.7222 31.8919C66.2521 31.3519 67.6718 30.4596 69.1111 29.7252C69.7791 29.3844 71 27.7531 71 28.503C71 30.0074 64.4653 39.6011 70.6667 37.9474C73.646 37.153 76.8381 34.857 78.5556 32.2808C79.6594 30.625 78.8614 30.0791 78.2222 32.2808C73.7238 47.7754 85.5756 35.8876 90.8333 31.7252C93.0784 29.9479 94.8129 28.2238 97.5556 30.2808C98.2244 30.7824 102 35.8933 102 33.503C102 22.4696 94.2642 36.028 92.4444 39.3919C90.7657 42.495 91.5533 44.7264 95.1111 42.9474C100.252 40.3768 106.764 36.3934 109.778 31.3919C111.224 28.9916 112.764 25.3953 111.5 22.6141C110.424 20.247 112.998 18.0546 113.944 16.003C115.238 13.2013 119.738 3.05726 122.444 12.3363C124.134 18.1307 120.43 23.4334 117.333 27.9474C116.388 29.3259 110.219 35.9055 114.667 36.8363C119.673 37.8843 123.852 35.3573 126.889 31.503C127.603 30.5963 131.292 23.5356 132.222 25.0586C132.671 25.7934 134.78 29.9474 135.5 29.9474C136.379 29.9474 135.15 25.1739 134.444 24.6697C131.455 22.534 119.586 40.9844 128.167 36.3363C132.053 34.2311 133.66 31.4767 135.778 27.9474C139.071 22.4594 134.251 40.7304 132.333 46.8363C131.397 49.8161 126.213 65.4806 119.722 61.2808C114.662 58.0065 122.78 52.017 125 50.7252C133.093 46.0168 143.675 44.2427 149.778 36.6141C150.393 35.8454 153.25 27.4749 150.5 29.6141C147.993 31.5644 146.026 36.523 146.778 39.6141C148.024 44.7389 159.436 33.4031 159.889 32.8919C166.073 25.9102 168.67 18.966 169 9.72523C169.066 7.88902 170.687 -2.75204 169.556 4.503C168.156 13.4736 165.742 22.9807 166.167 32.1141C166.531 39.9399 174.923 37.5275 180.222 36.3919C190.033 34.2895 199.42 30.5277 208.667 26.7252C211.758 25.454 221.343 23.0586 218 23.0586" stroke="black" stroke-width="3" stroke-linecap="round"/>
<path d="M199.201 20.9055C204.362 20.4364 212.65 15.8437 215.423 11.6833C216.552 9.98977 218.915 3.72946 215.979 2.12775C213.234 0.630367 209.057 12.7604 208.645 14.2389C206.201 23.0099 206.641 30.9877 201.757 39.1278C201.27 39.938 192.206 56.4926 190.423 53.4611C187.256 48.0763 189.872 40.8018 193.423 36.4611C199.342 29.2276 206.83 23.2763 213.423 16.6833C216.695 13.4115 220.614 8.90553 225.701 8.90553C229.706 8.90553 225.652 16.5634 224.645 17.9055C220.319 23.6735 212.534 24.9984 206.757 28.85C205.338 29.7955 209.992 27.7634 211.645 27.35C219.656 25.3474 227.76 24.0121 236.034 24.5166C245.38 25.0865 253.477 27.033 247.534 37.0166C239.415 50.6572 220.85 57.7766 205.868 52.4055C204.121 51.7793 193.876 46.5999 199.257 43.4611C201.86 41.9423 206.925 45.2112 209.257 46.0722C220.201 50.1131 230.741 53.3485 242.479 51.1833C255.807 48.7247 263.201 39.9479 263.201 26.9055" stroke="black" stroke-width="3" stroke-linecap="round"/>
</svg>
